<svg width="64" height="64" viewBox="0 0 64 64" fill="none" xmlns="http://www.w3.org/2000/svg">
<path d="M61 8H58V7C58 6.4475 57.5525 6 57 6H50V5C50 3.34375 48.6562 2 47 2C45.3438 2 44 3.34375 44 5V6H42V5C42 3.34375 40.6562 2 39 2C37.3438 2 36 3.34375 36 5V6H24V5C24 3.34375 22.6562 2 21 2C19.3438 2 18 3.34375 18 5V6H16V5C16 3.34375 14.6562 2 13 2C11.3438 2 10 3.34375 10 5V6H3C2.4475 6 2 6.4475 2 7V57C2 57.5525 2.4475 58 3 58H4V61C4 61.5525 4.4475 62 5 62H61C61.5525 62 62 61.5525 62 61V9C62 8.4475 61.5525 8 61 8ZM4 56V20H56V56H4ZM46 5C46 4.4475 46.4475 4 47 4C47.5525 4 48 4.4475 48 5V6H46V5ZM38 5C38 4.4475 38.4475 4 39 4C39.5525 4 40 4.4475 40 5V6H38V5ZM20 5C20 4.4475 20.4475 4 21 4C21.5525 4 22 4.4475 22 5V6H20V5ZM12 5C12 4.4475 12.4475 4 13 4C13.5525 4 14 4.4475 14 5V6H12V5ZM10 8V9C10.0025 10.6562 11.3438 11.9975 13 12C13.5525 12 14 11.5525 14 11C14 10.4475 13.5525 10 13 10C12.4475 10 12 9.5525 12 9V8H18V9C18.0025 10.6562 19.3438 11.9975 21 12C21.5525 12 22 11.5525 22 11C22 10.4475 21.5525 10 21 10C20.4475 10 20 9.5525 20 9V8H36V9C36.0025 10.6562 37.3438 11.9975 39 12C39.5525 12 40 11.5525 40 11C40 10.4475 39.5525 10 39 10C38.4475 10 38 9.5525 38 9V8H44V9C44.0025 10.6562 45.3438 11.9975 47 12C47.5525 12 48 11.5525 48 11C48 10.4475 47.5525 10 47 10C46.4475 10 46 9.5525 46 9V8H56V18H4V8H10ZM60 60H6V58H57C57.5525 58 58 57.5525 58 57V10H60V60Z" fill="#222222"/>
<path d="M17 46.0001C17.3788 46.0001 17.7538 45.9276 18.1063 45.7876C18.5425 47.3863 20.1913 48.3288 21.79 47.8926C23.095 47.5363 24 46.3526 24 45.0001V41.0001H36V45.0001C36.0013 46.6563 37.345 47.9988 39.0025 47.9976C40.355 47.9963 41.5388 47.0913 41.895 45.7876C43.4338 46.3988 45.1775 45.6476 45.7888 44.1088C45.9288 43.7563 46.0013 43.3801 46.0013 43.0001V33.0001C46.0025 31.3438 44.66 30.0013 43.005 30.0001C42.625 30.0001 42.2488 30.0713 41.8963 30.2126C41.46 28.6138 39.8113 27.6713 38.2125 28.1076C36.9075 28.4638 36.0025 29.6476 36.0025 31.0001V35.0001H24.0025V31.0001C24.0013 29.3438 22.6575 28.0013 21 28.0026C19.6475 28.0038 18.4638 28.9088 18.1075 30.2126C16.5688 29.6013 14.825 30.3526 14.2138 31.8913C14.0738 32.2438 14.0013 32.6201 14.0013 33.0001V43.0001C14.0025 44.6563 15.3438 45.9976 17 46.0001ZM43 32.0001C43.5525 32.0001 44 32.4476 44 33.0001V43.0001C44 43.5526 43.5525 44.0001 43 44.0001C42.4475 44.0001 42 43.5526 42 43.0001V33.0001C42 32.4476 42.4475 32.0001 43 32.0001ZM38 31.0001C38 30.4476 38.4475 30.0001 39 30.0001C39.5525 30.0001 40 30.4476 40 31.0001V45.0001C40 45.5526 39.5525 46.0001 39 46.0001C38.4475 46.0001 38 45.5526 38 45.0001V31.0001ZM36 37.0001V39.0001H24V37.0001H36ZM20 31.0001C20 30.4476 20.4475 30.0001 21 30.0001C21.5525 30.0001 22 30.4476 22 31.0001V45.0001C22 45.5526 21.5525 46.0001 21 46.0001C20.4475 46.0001 20 45.5526 20 45.0001V31.0001ZM16 33.0001C16 32.4476 16.4475 32.0001 17 32.0001C17.5525 32.0001 18 32.4476 18 33.0001V43.0001C18 43.5526 17.5525 44.0001 17 44.0001C16.4475 44.0001 16 43.5526 16 43.0001V33.0001Z" fill="#F4C32E"/>
</svg>
