<svg width="63" height="63" viewBox="0 0 63 63" fill="none" xmlns="http://www.w3.org/2000/svg">
<path d="M28.0166 6.17137C28.2004 5.78287 28.3841 5.40487 28.5731 5.03475C28.6243 4.93894 28.7437 4.67906 28.8986 4.33913C29.1585 3.7695 29.8226 2.31131 30.1035 1.8795C30.3516 1.68787 30.5117 1.38731 30.5117 1.05C30.5117 0.468563 30.0418 0 29.4617 0C29.043 0 28.0586 0 23.3796 3.72487C14.2695 10.9672 4.52418 23.1499 3.2878 34.041C2.70112 39.2201 3.9808 43.8231 7.09274 47.7264C10.9384 52.5472 16.1621 54.5501 21.2559 54.5501C24.696 54.5501 28.077 53.634 30.9369 52.0564C32.6196 58.3879 38.4733 63 45.1474 63C53.2534 63 59.8474 56.406 59.8474 48.3C59.8474 40.194 53.2534 33.6 45.1474 33.6C43.5448 33.6 41.979 33.8599 40.4736 34.3652C40.2032 32.1694 39.564 30.0366 38.9366 27.9615C38.6964 27.1687 38.4576 26.3799 38.2449 25.599C37.6753 23.4872 37.4272 21.7599 37.4614 20.1626C37.4824 19.2504 37.5952 18.3816 37.7961 17.5836C37.905 17.1557 38.0979 16.7252 38.3001 16.2684C38.5087 15.8025 38.724 15.3195 38.871 14.7919C38.9511 14.5018 38.9025 14.1908 38.7371 13.9374C38.5717 13.6841 38.3066 13.5161 38.0074 13.4728C35.6383 13.1355 33.2706 14.5005 31.8465 15.8904C30.7204 16.9851 30.1468 18.3514 29.5916 19.6731C29.4892 19.9132 29.3895 20.1534 29.2897 20.3805C29.2504 20.4671 29.1729 20.622 29.0771 20.8097C29.0535 20.7821 29.0299 20.7546 29.0062 20.7257C28.4773 20.1167 27.6767 19.1927 27.5625 19.0352C25.4901 15.9101 25.5373 11.8177 27.7384 6.78956C27.8276 6.58481 27.9169 6.38006 28.0166 6.17137ZM20.9724 52.1587C19.4512 52.1364 18.0495 51.4933 17.0271 50.3475C12.8927 45.7144 13.6369 38.7109 16.0768 34.1631C16.8656 32.6904 17.9209 31.2309 18.942 29.8187C19.2071 29.4525 19.4762 29.0811 19.7426 28.7044C20.6587 30.4815 21.5972 32.1169 22.9819 33.8021L23.3953 34.3035C24.8692 36.0859 26.3931 37.9286 27.1543 40.0693C28.3447 43.4096 27.5441 47.9994 25.3693 50.2976C24.2471 51.4867 22.6196 52.1456 20.9724 52.1587ZM57.7474 48.3C57.7474 55.2484 52.0944 60.9 45.1474 60.9C38.9839 60.9 33.6289 56.3181 32.6931 50.2399C32.5972 49.6151 32.5474 48.9628 32.5474 48.3C32.5474 47.9902 32.5592 47.6831 32.5802 47.3773C32.6471 46.4599 32.8151 45.5634 33.0724 44.6998C34.0187 41.5341 36.1882 38.8172 39.1519 37.2146C39.4209 37.0702 39.6952 36.9337 39.9774 36.8064C41.6181 36.0727 43.3571 35.7 45.1474 35.7C52.0957 35.7 57.7474 41.3516 57.7474 48.3ZM26.7094 4.06612C26.5046 4.46512 26.3104 4.86412 26.1187 5.26706C26.0098 5.49281 25.9114 5.71987 25.7775 6.027C23.3441 11.5907 23.3546 16.4902 25.8169 20.2033C25.9481 20.3976 26.3314 20.8464 27.4168 22.0999C27.867 22.6196 28.2765 23.0908 28.4025 23.2509C28.5429 23.4596 28.7556 23.6197 29.0115 23.6854C29.4709 23.8061 29.9578 23.6027 30.1927 23.1853C30.3936 22.8296 31.0288 21.6247 31.206 21.2349C31.3136 20.9882 31.4186 20.7375 31.5249 20.4868C32.0211 19.3082 32.4883 18.1926 33.3086 17.3959C34.0305 16.6911 35.1238 15.9456 36.2749 15.6502C36.078 16.0952 35.8877 16.5572 35.7577 17.0691C35.5176 18.0206 35.3824 19.047 35.3574 20.118C35.3194 21.9201 35.5911 23.8376 36.2132 26.1502C36.4337 26.9535 36.6778 27.7607 36.9232 28.5705C37.5821 30.7479 38.2594 32.991 38.4536 35.2078C38.4011 35.2341 38.3526 35.2656 38.3001 35.2918C38.1544 35.3693 38.0126 35.4506 37.8696 35.5307C37.7094 35.6226 37.548 35.7144 37.3918 35.8116C37.254 35.8982 37.1175 35.9874 36.9823 36.078C36.8287 36.1804 36.6778 36.2841 36.5282 36.3917C36.3969 36.4875 36.2683 36.5846 36.141 36.6831C35.9966 36.7959 35.8536 36.9101 35.7131 37.0269C35.5897 37.1306 35.469 37.2343 35.3509 37.3419C35.2144 37.4653 35.0805 37.59 34.9479 37.7173C34.8324 37.8276 34.7209 37.9404 34.6106 38.0533C34.482 38.1846 34.3586 38.3184 34.2352 38.4536C34.1289 38.5704 34.0239 38.6899 33.9229 38.8119C33.8047 38.9524 33.6906 39.0941 33.579 39.2385C33.4819 39.3632 33.3847 39.4866 33.2929 39.6152C33.1839 39.7635 33.0802 39.9157 32.9766 40.068C32.8899 40.1966 32.8007 40.3266 32.7193 40.4591C32.6209 40.6153 32.5277 40.7754 32.4332 40.9369C32.3557 41.0707 32.2757 41.2046 32.2035 41.3411C32.1156 41.5065 32.0329 41.6745 31.9502 41.8425C31.8819 41.9803 31.8137 42.1181 31.7507 42.2586C31.6732 42.4305 31.6037 42.6064 31.5315 42.7809C31.4737 42.9227 31.4147 43.0618 31.3622 43.2062C31.2952 43.3873 31.2375 43.5711 31.1771 43.7535C31.1312 43.8966 31.0813 44.037 31.0393 44.1827C30.9829 44.373 30.9369 44.5659 30.8897 44.7589C30.8542 44.9006 30.8149 45.0397 30.7834 45.1828C30.7387 45.3862 30.7059 45.5923 30.6705 45.7997C30.6469 45.9349 30.6193 46.0687 30.5996 46.2052C30.5655 46.4376 30.5445 46.6725 30.5222 46.9061C30.5117 47.019 30.4946 47.1306 30.4867 47.2447C30.4631 47.5926 30.45 47.9443 30.45 48.2974C30.45 48.7712 30.4789 49.2384 30.5222 49.7004C30.5274 49.7569 30.5248 49.8133 30.5301 49.8684C29.4879 50.5011 28.35 51.0195 27.1622 51.4329C29.6651 48.5008 30.5392 43.302 29.1362 39.3632C28.2502 36.8747 26.607 34.8862 25.0162 32.9634L24.6067 32.4673C22.9701 30.4749 21.9752 28.4839 20.8228 26.1765C20.6548 25.8405 20.3201 25.62 19.9447 25.5977C19.5759 25.5767 19.2111 25.7552 19.0037 26.0702C18.4603 26.901 17.8684 27.7174 17.241 28.5849C16.1779 30.0523 15.0806 31.5696 14.2249 33.1656C11.5382 38.1741 10.7218 45.8469 15.0399 51.219C12.7234 50.2556 10.5538 48.6911 8.73599 46.4126C5.98499 42.9621 4.85493 38.8776 5.37599 34.2746C6.5428 23.9807 15.9154 12.3375 24.7117 5.34319C25.5596 4.66856 26.2815 4.12387 26.8879 3.6855C26.8065 3.86662 26.7461 4.00181 26.7094 4.06612Z" fill="#222222"/>
<path d="M32.9228 29.8357C33.3651 31.2952 33.7838 32.6812 34.0502 34.0069C34.0948 34.2274 34.3088 34.3717 34.5306 34.3323L35.7774 34.1118C36.0084 34.0712 36.1594 33.848 36.1134 33.617C35.8273 32.1759 35.3732 30.6783 34.9335 29.2267C34.6776 28.3828 34.4243 27.5415 34.1959 26.7041C34.0029 25.9993 33.8441 25.3365 33.7116 24.6894C33.6656 24.4663 33.4504 24.3232 33.2273 24.3652L31.983 24.5988C31.7533 24.6422 31.605 24.864 31.651 25.0923C31.7927 25.7906 31.9633 26.502 32.1694 27.2553C32.403 28.1111 32.6616 28.9708 32.9228 29.8357Z" fill="#222222"/>
<path d="M38.7673 56.1645L49.8475 45.0844C50.0496 44.8823 50.3974 45.0254 50.3974 45.3115V46.9272C50.3974 47.1044 50.5418 47.2487 50.719 47.2487H52.1758C52.353 47.2487 52.4974 47.1044 52.4974 46.9272V42.3203C52.4974 41.563 51.8831 40.9487 51.1258 40.9487H46.519C46.3418 40.9487 46.1974 41.0931 46.1974 41.2703V42.7272C46.1974 42.9044 46.3418 43.0487 46.519 43.0487H48.1346C48.4208 43.0487 48.5651 43.3952 48.3617 43.5987L37.2816 54.6788C37.1556 54.8048 37.1556 55.0082 37.2816 55.1342L38.3106 56.1632C38.4379 56.2905 38.6426 56.2905 38.7673 56.1645Z" fill="#F4C32E"/>
<path d="M36.7474 45.15C36.7474 46.8864 38.1609 48.3 39.8974 48.3C41.6338 48.3 43.0474 46.8864 43.0474 45.15C43.0474 43.4136 41.6338 42 39.8974 42C38.1609 42 36.7474 43.4136 36.7474 45.15ZM40.9474 45.15C40.9474 45.7288 40.4762 46.2 39.8974 46.2C39.3172 46.2 38.8474 45.7288 38.8474 45.15C38.8474 44.5712 39.3172 44.1 39.8974 44.1C40.4775 44.1 40.9474 44.5712 40.9474 45.15Z" fill="#F4C32E"/>
<path d="M48.2974 50.4C46.5609 50.4 45.1474 51.8136 45.1474 53.55C45.1474 55.2865 46.5609 56.7 48.2974 56.7C50.0338 56.7 51.4474 55.2865 51.4474 53.55C51.4474 51.8136 50.0338 50.4 48.2974 50.4ZM48.2974 54.6C47.7172 54.6 47.2474 54.1288 47.2474 53.55C47.2474 52.9712 47.7172 52.5 48.2974 52.5C48.8762 52.5 49.3474 52.9712 49.3474 53.55C49.3474 54.1288 48.8775 54.6 48.2974 54.6Z" fill="#F4C32E"/>
<path d="M45.1474 14.8746V16.6268C45.1474 16.7226 45.0699 16.8013 44.9728 16.8013H43.2206C43.1248 16.8013 43.0461 16.8788 43.0461 16.9759V18.7281C43.0461 18.8239 43.1235 18.9026 43.2206 18.9026H44.9728C45.0686 18.9026 45.1474 18.9801 45.1474 19.0772V20.8294C45.1474 20.9252 45.2248 21.004 45.3219 21.004H47.0741C47.1699 21.004 47.2487 20.9265 47.2487 20.8294V19.0772C47.2487 18.9814 47.3261 18.9026 47.4232 18.9026H49.1754C49.2712 18.9026 49.35 18.8252 49.35 18.7281V16.9759C49.35 16.8801 49.2726 16.8013 49.1754 16.8013H47.4232C47.3274 16.8013 47.2487 16.7239 47.2487 16.6268V14.8746C47.2487 14.7788 47.1712 14.7 47.0741 14.7H45.3219C45.2261 14.7 45.1474 14.7774 45.1474 14.8746Z" fill="#F4C32E"/>
<path d="M51.4474 7.56523V10.286C51.4474 10.4042 51.3515 10.5013 51.2321 10.5013H48.5113C48.3932 10.5013 48.2961 10.5971 48.2961 10.7165V12.3873C48.2961 12.5055 48.3919 12.6026 48.5113 12.6026H51.2321C51.3502 12.6026 51.4474 12.6984 51.4474 12.8179V15.5387C51.4474 15.6568 51.5432 15.7539 51.6626 15.7539H53.3334C53.4515 15.7539 53.5487 15.6581 53.5487 15.5387V12.8152C53.5487 12.6971 53.6445 12.6 53.7639 12.6H56.4847C56.6029 12.6 56.7 12.5042 56.7 12.3847V10.7152C56.7 10.5971 56.6042 10.5 56.4847 10.5H53.7639C53.6458 10.5 53.5487 10.4042 53.5487 10.2847V7.56523C53.5487 7.4471 53.4529 7.34998 53.3334 7.34998H51.6626C51.5445 7.34998 51.4474 7.44579 51.4474 7.56523Z" fill="#F4C32E"/>
</svg>
