<svg width="151" height="50" viewBox="0 0 151 50" fill="none" xmlns="http://www.w3.org/2000/svg">
<path fill-rule="evenodd" clip-rule="evenodd" d="M10.0913 11.5954C13.6584 11.5954 16.2008 9.60632 16.7597 7.86976C18.2007 6.92676 21.595 7.50362 23.5499 8.17911C33.3527 8.17911 41.3269 16.0848 41.3269 25.8032C41.3269 29.4273 40.227 32.9094 38.1444 35.8684L40.7153 37.6453C43.1645 34.1617 44.4598 30.0669 44.4598 25.8032C44.4598 14.3721 35.0792 5.07214 23.5484 5.07214C21.589 5.74614 18.1992 6.32898 16.7643 5.38C16.1933 3.64344 13.6464 1.65432 10.0778 1.65432C6.53621 1.64685 3.28464 3.42824 3.23355 6.57706H3.22754V6.65776H3.23355C3.29065 9.81106 6.54823 11.5954 10.0913 11.5954ZM15.5727 7.89816C15.451 8.08646 12.7884 12.0004 7.02004 9.52711C7.31455 9.60034 11.2212 10.5374 15.5727 7.89816Z" fill="#F4EFE9"/>
<path fill-rule="evenodd" clip-rule="evenodd" d="M33.5495 45.9275L43.4981 45.8363L43.4861 44.8305L33.4804 44.9217L33.4684 43.9891L43.4801 43.898L43.4741 42.8235L33.4624 42.9191L33.4564 41.9806L43.462 41.8894L43.456 41.0361L34.9815 40.3995C34.9815 40.3995 34.6629 40.3711 34.5427 40.3711C33.237 40.3875 32.074 40.9898 31.3227 41.9283C27.8247 45.0338 24.2065 42.9669 23.3576 42.9774C13.5262 42.9774 5.52797 35.1106 5.52797 25.44C5.52797 21.925 6.57978 18.5341 8.5722 15.6363L5.96823 13.9058C3.62421 17.3191 2.38458 21.3078 2.38458 25.4415C2.38458 36.8173 11.7937 46.0724 23.3576 46.0724C24.3462 46.0605 28.4678 44.3344 31.5601 47.2635C31.5661 47.2635 31.5766 47.268 31.5766 47.274C32.2814 47.9898 33.2415 48.4561 34.3158 48.5188C34.397 48.5248 34.5878 48.5188 34.5878 48.5188L43.5071 47.6999V46.7673L33.554 46.863L33.5495 45.9275Z" fill="#F4EFE9"/>
<path fill-rule="evenodd" clip-rule="evenodd" d="M15.0077 32.7151L15.3052 35.1317H22.2832L22.5807 32.7151C22.2832 32.3849 21.7363 32.065 20.9414 31.7542V18.4505C21.7167 18.1591 22.2637 17.8303 22.5807 17.4612L22.2832 15.0447H15.3052L15.0077 17.4612C15.2857 17.8303 15.8326 18.1591 16.647 18.4505V31.7542C15.8131 32.065 15.2662 32.3863 15.0077 32.7151Z" fill="#F4EFE9"/>
<path fill-rule="evenodd" clip-rule="evenodd" d="M32.385 35.1317L32.681 32.7151C32.2077 32.1532 31.3287 31.7348 30.047 31.4628L25.3695 24.5345L30.4918 18.334C31.2416 18.0231 31.7539 17.7123 32.0304 17.4029L31.7344 15.0447H24.9848L24.6888 17.4029C24.9052 17.6749 25.2914 17.9364 25.8428 18.189L20.8993 24.6525L27.4716 35.1332H32.385V35.1317Z" fill="#F4EFE9"/>
<path d="M59.9393 18.7434L60.1331 20.347C59.9258 20.592 59.5697 20.8102 59.0648 21.003V29.8293C59.5832 30.0355 59.9393 30.2477 60.1331 30.4659L59.9393 32.0695H55.3955L55.2017 30.4659C55.3699 30.2477 55.7261 30.034 56.27 29.8293V21.003C55.7396 20.8102 55.3835 20.5906 55.2017 20.347L55.3955 18.7434H59.9393ZM66.7174 32.071H63.4944L59.1835 25.1173L62.4261 20.8297C62.0639 20.6623 61.8115 20.4889 61.6688 20.3081L61.8626 18.7434H66.2907L66.4845 20.3081C66.3027 20.5143 65.9661 20.7206 65.4748 20.9268L62.115 25.041L65.1833 29.638C66.0247 29.8188 66.6017 30.0953 66.9113 30.4689L66.7174 32.071Z" fill="#F4EFE9"/>
<path d="M72.5625 32.2248C71.0088 32.2248 69.8398 31.8123 69.0569 30.9889C68.2741 30.1655 67.8819 28.9669 67.8819 27.3962C67.8819 26.4428 68.0172 25.6223 68.2891 24.9334C68.5611 24.2444 68.9292 23.7139 69.3965 23.3403C70.3026 22.62 71.3574 22.2583 72.5625 22.2583C73.7675 22.2583 74.6886 22.5647 75.3302 23.1759C75.9703 23.7871 76.2918 24.8856 76.2918 26.4697C76.2918 27.3962 75.8321 27.861 74.9125 27.861H70.6978C70.7488 28.6725 70.9607 29.2449 71.3288 29.5796C71.6985 29.9144 72.283 30.0818 73.0869 30.0818C73.5271 30.0818 73.9478 30.031 74.349 29.9278C74.7502 29.8247 75.0417 29.7216 75.2235 29.6185L75.4955 29.4646L76.0785 31.0098C76.0003 31.0995 75.8877 31.2131 75.7389 31.3476C75.5901 31.4821 75.2145 31.6629 74.612 31.8886C74.0094 32.1127 73.3273 32.2248 72.5625 32.2248ZM73.7871 26.1409C73.8126 25.9601 73.8261 25.7419 73.8261 25.4848C73.8261 25.2278 73.7224 24.9543 73.5151 24.6644C73.3077 24.3744 72.9486 24.2295 72.4377 24.2295C71.9269 24.2295 71.5347 24.3834 71.2627 24.6928C70.9908 25.0021 70.8089 25.5237 70.7188 26.2575L73.7871 26.1409Z" fill="#F4EFE9"/>
<path d="M81.4562 19.9793V22.4123H84.233V24.0352H81.4562V28.9221C81.4562 29.3346 81.5148 29.6335 81.6305 29.8203C81.7477 30.0071 82.0257 30.0997 82.4659 30.0997C82.9062 30.0997 83.378 30.0026 83.8844 29.8098L84.4674 31.3162C83.4697 31.8184 82.4509 32.0694 81.4081 32.0694C80.3653 32.0694 79.6606 31.8468 79.291 31.4029C78.9214 30.959 78.738 30.3119 78.738 29.4616V24.0337H77.8635L77.6502 22.8561C77.8575 22.611 78.2843 22.3674 78.9319 22.1223C79.0866 21.0672 79.4563 20.3514 80.0393 19.9778H81.4562V19.9793Z" fill="#F4EFE9"/>
<path d="M90.2839 32.225C88.7497 32.225 87.6138 31.82 86.876 31.0086C86.1382 30.1971 85.7686 28.9701 85.7686 27.3292C85.7686 25.6868 86.1788 24.4315 87.0022 23.5632C87.8241 22.6934 89.0052 22.26 90.5468 22.26C92.0869 22.26 93.2304 22.6471 93.9742 23.4182C94.718 24.1908 95.0906 25.3984 95.0906 27.0393C95.0906 28.6817 94.6729 29.9565 93.8374 30.8636C93.002 31.7707 91.818 32.225 90.2839 32.225ZM88.5649 27.1648C88.5649 29.2257 89.187 30.2553 90.4296 30.2553C91.0637 30.2553 91.5325 30.0207 91.8375 29.55C92.141 29.0807 92.2943 28.3111 92.2943 27.2425C92.2943 25.234 91.6602 24.2297 90.3905 24.2297C89.7685 24.2297 89.3087 24.4524 89.0112 24.8962C88.7137 25.3386 88.5649 26.0963 88.5649 27.1648Z" fill="#F4EFE9"/>
<path d="M109.072 21.0226C108.684 20.8552 108.101 20.7715 107.325 20.7715C106.548 20.7715 105.92 21.1063 105.44 21.7758C104.961 22.4453 104.722 23.617 104.722 25.2908C104.722 26.9646 104.952 28.1526 105.412 28.855C105.872 29.5574 106.554 29.9071 107.46 29.9071C108.845 29.9071 110.088 29.7009 111.189 29.2884L111.888 31.0071C110.516 31.8185 108.904 32.2235 107.053 32.2235C105.201 32.2235 103.864 31.702 103.042 30.6588C102.22 29.6157 101.809 27.9105 101.809 25.5403C101.809 23.1716 102.316 21.4201 103.334 20.2873C104.349 19.1545 105.777 18.5881 107.616 18.5881C109.092 18.5881 110.497 18.9931 111.831 19.8046C111.831 19.8823 111.831 20.0303 111.831 20.2485C111.831 20.4682 111.786 20.8403 111.696 21.3693C111.605 21.8969 111.475 22.3288 111.308 22.6635H109.463C109.279 22.3168 109.15 21.7698 109.072 21.0226Z" fill="#F4EFE9"/>
<path d="M116.064 34.3112C116.296 34.3112 116.546 34.096 116.812 33.6641C117.076 33.2322 117.261 32.7211 117.365 32.1278L114.179 24.6331C113.545 24.4269 113.117 24.1818 112.898 23.8993L113.091 22.4124H117.559L117.752 23.8993C117.584 24.1056 117.299 24.2924 116.898 24.4598L117.966 27.3769C118.199 27.9822 118.361 28.5815 118.451 29.1733L118.51 29.4438H118.782C118.885 28.7997 119.066 28.1242 119.326 27.4158L120.355 24.5569C119.876 24.3761 119.539 24.1579 119.345 23.9008L119.539 22.4138H123.811L124.005 23.9008C123.772 24.1967 123.345 24.4478 122.723 24.654L119.518 32.1876C118.909 33.6163 118.444 34.5369 118.119 34.9493C117.55 35.7085 116.756 36.0896 115.741 36.0896C114.723 36.0896 113.951 35.8251 113.421 35.2975C113.407 35.169 113.401 35.0405 113.401 34.912C113.401 34.2036 113.55 33.5341 113.847 32.9034H115.46C115.653 33.2516 115.763 33.7209 115.79 34.3127H116.064V34.3112Z" fill="#F4EFE9"/>
<path d="M129.677 24.228C128.485 24.228 127.89 25.2457 127.89 27.2797C127.89 28.3094 128.056 29.0282 128.386 29.4332C128.717 29.8382 129.192 30.0415 129.814 30.0415C130.798 30.0415 131.665 29.9518 132.416 29.771L132.999 31.2579C132.584 31.5284 132.028 31.7571 131.328 31.9439C130.63 32.1307 129.949 32.2234 129.289 32.2234C126.493 32.2234 125.094 30.6138 125.094 27.3948C125.094 25.5148 125.579 24.1623 126.55 23.3388C127.417 22.6185 128.472 22.2568 129.716 22.2568C130.959 22.2568 131.994 22.4885 132.823 22.9518C132.837 23.0803 132.843 23.2028 132.843 23.3194C132.843 24.0532 132.675 24.7481 132.338 25.4057H130.63C130.448 25.0843 130.338 24.6973 130.299 24.2475C130.143 24.2355 129.935 24.228 129.677 24.228Z" fill="#F4EFE9"/>
<path d="M134.454 18.3563C135.178 18.1889 135.851 18.1052 136.473 18.1052C137.095 18.1052 137.618 18.1247 138.046 18.1635V29.9264C138.551 30.1191 138.907 30.3388 139.115 30.5824L138.921 32.0694H134.454L134.26 30.5824C134.442 30.3373 134.796 30.1191 135.328 29.9264V20.5008C134.874 20.3469 134.518 20.1272 134.26 19.8448L134.454 18.3563Z" fill="#F4EFE9"/>
<path d="M145.212 32.2248C143.658 32.2248 142.489 31.8123 141.707 30.9889C140.924 30.1655 140.532 28.9669 140.532 27.3962C140.532 26.4428 140.667 25.6223 140.939 24.9334C141.211 24.2444 141.579 23.7139 142.046 23.3403C142.952 22.62 144.007 22.2583 145.212 22.2583C146.416 22.2583 147.338 22.5647 147.98 23.1759C148.62 23.7871 148.941 24.8856 148.941 26.4697C148.941 27.3962 148.482 27.861 147.562 27.861H143.347C143.398 28.6725 143.61 29.2449 143.978 29.5796C144.348 29.9144 144.933 30.0818 145.736 30.0818C146.177 30.0818 146.597 30.031 146.999 29.9278C147.4 29.8247 147.691 29.7216 147.873 29.6185L148.145 29.4646L148.728 31.0098C148.65 31.0995 148.537 31.2131 148.389 31.3476C148.24 31.4821 147.864 31.6629 147.262 31.8886C146.659 32.1127 145.975 32.2248 145.212 32.2248ZM146.435 26.1409C146.461 25.9601 146.474 25.7419 146.474 25.4848C146.474 25.2278 146.371 24.9543 146.163 24.6644C145.956 24.3744 145.597 24.2295 145.086 24.2295C144.575 24.2295 144.183 24.3834 143.911 24.6928C143.639 25.0021 143.457 25.5237 143.367 26.2575L146.435 26.1409Z" fill="#F4EFE9"/>
</svg>
