<svg width="62" height="55" viewBox="0 0 62 55" fill="none" xmlns="http://www.w3.org/2000/svg">
<path d="M52.4715 40.8927C52.574 37.4523 52.6765 34.0119 52.7783 30.5715C52.7923 30.0868 52.8144 29.6627 52.369 29.2513C49.4103 26.5183 48.639 22.5251 50.2982 18.8708C50.7304 17.9191 51.3388 17.1036 52.1264 16.4228C53.97 14.8288 56.5134 14.828 58.3556 16.4169C61.8665 19.4436 61.9314 25.9581 58.4256 28.9974C57.8371 29.5073 57.6801 29.9906 57.7044 30.7077C57.9212 37.2303 58.1122 43.7537 58.3076 50.2771C58.3224 50.7685 58.3526 51.2628 58.315 51.7512C58.1911 53.3394 56.8785 54.5767 55.3129 54.613C53.7067 54.6507 52.2746 53.3919 52.1772 51.7483C52.1116 50.636 52.1765 49.5141 52.2141 48.3974C52.2989 45.8954 52.4029 43.3948 52.4988 40.8935C52.4892 40.8935 52.4803 40.8927 52.4715 40.8927ZM54.5105 40.2119C54.5127 40.2119 54.5149 40.2119 54.5172 40.2119C54.408 43.696 54.2989 47.1793 54.1905 50.6634C54.1824 50.9313 54.1536 51.2029 54.1846 51.4663C54.2672 52.1583 54.7281 52.6149 55.2996 52.5542C55.9161 52.4883 56.2561 52.1079 56.29 51.49C56.3121 51.0897 56.2914 50.6863 56.2789 50.2845C56.0687 43.4954 55.8711 36.7064 55.63 29.9188C55.5953 28.9338 55.731 28.1841 56.7324 27.7416C57.1159 27.5721 57.4367 27.1932 57.7103 26.8491C59.4057 24.7178 59.3622 20.6891 57.6432 18.5593C56.2398 16.8209 54.1012 16.852 52.7738 18.6614C51.7849 20.0097 51.3911 21.5579 51.5165 23.2133C51.6559 25.0568 52.1846 26.7766 53.8542 27.7979C54.6691 28.2959 54.9065 28.8635 54.8674 29.7619C54.7192 33.2445 54.6248 36.7286 54.5105 40.2119Z" fill="#222222"/>
<path d="M4.49694 27.8674C3.76761 27.5507 3.10538 27.3968 2.58253 26.9542C1.48079 26.0225 0.944667 24.8451 1.1128 23.3998C1.36575 21.2249 1.64377 19.0521 1.93506 16.8816C2.04936 16.0313 2.48593 15.6369 3.10759 15.7301C3.71967 15.8219 4.02571 16.294 3.93058 17.1702C3.7182 19.1261 3.43871 21.0747 3.23517 23.0306C3.02869 25.0168 3.38561 25.446 5.36049 25.7753C6.29262 25.9307 6.5935 26.3555 6.55884 27.5092C6.43347 31.6667 6.30516 35.8243 6.17316 39.9818C6.06549 43.3792 5.95045 46.776 5.83909 50.1735C5.79558 51.4907 6.15398 52.0665 6.99246 52.0288C7.75719 51.9947 8.07355 51.4915 8.03594 50.1994C7.82061 42.8679 7.58979 35.5364 7.36413 28.2049C7.35307 27.8474 7.3162 27.4885 7.33021 27.1326C7.36782 26.1683 7.63404 25.8945 8.60599 25.7739C10.409 25.5496 10.9098 24.948 10.707 23.1134C10.5204 21.4262 10.2652 19.747 10.0484 18.0627C9.99165 17.6202 9.92897 17.1739 9.92897 16.7292C9.9297 16.1579 10.2645 15.8034 10.8168 15.7294C11.3921 15.6517 11.7741 15.9625 11.8758 16.516C12.0373 17.3937 12.1487 18.2818 12.2659 19.1676C12.4304 20.4079 12.5683 21.6519 12.7394 22.8914C13.0727 25.3039 12.1553 26.8395 9.87292 27.6617C9.75124 27.7053 9.63546 27.7646 9.52853 27.8104C9.2955 28.2086 9.40538 28.6193 9.41718 29.0115C9.61776 35.8516 9.82867 42.691 10.0337 49.5311C10.0514 50.1113 10.0927 50.6974 10.0359 51.2724C9.87071 52.9538 8.51823 54.1467 6.87668 54.1075C5.23365 54.0683 3.93353 52.8221 3.81775 51.1437C3.78383 50.6553 3.82292 50.1602 3.8384 49.6688C4.05669 42.7399 4.27792 35.8109 4.49547 28.882C4.50579 28.5734 4.49694 28.2656 4.49694 27.8674Z" fill="#222222"/>
<path d="M48.6139 32.1929C48.4266 37.2392 46.3595 41.649 42.0698 44.9296C40.884 45.8361 40.5455 45.7769 39.7078 44.5736C38.6252 43.0181 37.5581 41.4522 36.4837 39.8907C34.8805 37.5618 33.2846 35.227 31.6674 32.9077C31.264 32.329 31.1202 31.7755 31.2338 31.0414C31.9299 26.5405 32.5627 22.03 33.219 17.5232C33.4609 15.8618 33.7234 15.6864 35.4358 16.0165C43.0447 17.4825 48.6014 24.1731 48.6139 32.1929Z" fill="#222222"/>
<path d="M29.0531 49.5984C19.7952 49.5059 12.8426 41.5706 13.9392 32.329C14.1191 30.8142 14.5668 29.3608 15.1906 27.9702C15.6427 26.9623 16.0579 26.8062 17.0932 27.3057C21.0607 29.2187 25.0149 31.1583 28.9772 33.0831C29.396 33.2866 29.6822 33.6115 29.9388 33.9845C32.4682 37.658 35.008 41.3256 37.5293 45.0051C38.3641 46.2239 38.2705 46.5917 37.0492 47.3576C34.7322 48.8103 31.8208 49.6258 29.0531 49.5984Z" fill="#222222"/>
<path d="M30.5686 13.715C30.2596 15.9011 29.9366 18.2455 29.5937 20.5862C29.2906 22.6605 28.961 24.7319 28.6512 26.8055C28.4307 28.2826 27.9285 28.5556 26.5775 27.9C22.9353 26.132 19.2938 24.3626 15.6545 22.588C13.8028 21.6852 13.6678 21.33 14.7895 19.5546C18.0136 14.4514 22.6683 11.9937 28.6837 12.1232C28.9499 12.1291 29.2183 12.1535 29.4794 12.2031C30.3975 12.3756 30.5944 12.6279 30.5686 13.715Z" fill="#F4C32E"/>
<path d="M52.9774 1.96771C53.012 2.57232 52.7945 2.86907 52.6064 3.16656C50.4671 6.55665 48.3226 9.94378 46.1744 13.328C46.0321 13.5514 45.8684 13.7698 45.6781 13.9518C45.3581 14.2589 44.9709 14.3226 44.5749 14.1102C44.1221 13.8674 43.9614 13.4508 44.1 12.9794C44.1973 12.6464 44.3965 12.3356 44.5845 12.0373C46.6523 8.75973 48.7245 5.48509 50.8034 2.21488C50.9922 1.91739 51.1994 1.61323 51.4619 1.38604C51.7466 1.13961 52.1123 1.12777 52.4612 1.31944C52.8026 1.50741 52.956 1.81082 52.9774 1.96771Z" fill="#F4C32E"/>
<path d="M46.5682 5.28674C46.5984 6.83563 45.3617 8.12402 43.8286 8.14178C42.2763 8.15955 41.0234 6.91037 41.0263 5.34668C41.0285 3.82813 42.1937 2.62336 43.7069 2.57452C45.2806 2.52346 46.538 3.71565 46.5682 5.28674ZM43.8146 4.61331C43.3596 4.66881 43.0926 4.9182 43.103 5.3822C43.1118 5.78108 43.3633 6.05045 43.7475 6.08153C44.204 6.1178 44.5093 5.8277 44.5365 5.3896C44.5638 4.93818 44.2563 4.68805 43.8146 4.61331Z" fill="#F4C32E"/>
<path d="M52.8136 7.70076C54.3638 7.72666 55.6263 9.01506 55.5791 10.5225C55.5319 12.0329 54.1816 13.3028 52.6861 13.2443C51.1596 13.1844 49.9671 11.8716 50.0268 10.3168C50.0866 8.78713 51.2709 7.67486 52.8136 7.70076ZM52.7923 9.70551C52.3918 9.78321 52.0777 9.97932 52.0828 10.464C52.0873 10.8637 52.3107 11.1464 52.7001 11.1885C53.1551 11.2381 53.4508 10.9747 53.5009 10.521C53.5533 10.0422 53.248 9.81577 52.7923 9.70551Z" fill="#F4C32E"/>
<path d="M8.12149 20.7845C8.12149 21.8532 8.12297 22.921 8.12076 23.9896C8.12002 24.256 8.13624 24.5284 8.09347 24.7889C7.98949 25.4223 7.53375 25.7317 6.85235 25.7095C6.21741 25.6887 6.18791 25.221 6.16431 24.7822C6.12891 24.1162 6.13776 23.4472 6.13703 22.7797C6.13481 20.9992 6.13776 19.2186 6.13924 17.4374C6.13924 17.2146 6.13776 16.9919 6.14882 16.7699C6.18054 16.1394 6.51534 15.7501 7.14069 15.7449C7.78153 15.7397 8.10453 16.1527 8.11117 16.7773C8.12444 18.1123 8.11559 19.448 8.11559 20.7838C8.11707 20.7845 8.11928 20.7845 8.12149 20.7845Z" fill="#222222"/>
<path d="M35.0795 5.23792C35.775 5.15873 36.3428 5.12913 36.9608 5.25864C37.1643 5.87286 37.0625 6.47895 37.0375 7.12648C36.376 7.31149 35.7691 7.2212 35.1223 7.19974C34.9645 6.55592 34.9977 5.95131 35.0795 5.23792Z" fill="#222222"/>
<path d="M27.0606 7.1857C27.02 6.50635 26.9662 5.90618 27.1078 5.27494C27.7058 5.11139 28.2737 5.17429 28.8813 5.21573C29.2478 5.84772 28.9757 6.49229 29.0686 7.1413C28.3319 7.27451 27.7324 7.24787 27.0606 7.1857Z" fill="#222222"/>
<path d="M23.0724 11.2174C23.0724 10.5188 23.0724 9.95417 23.0724 9.37472C23.6772 9.03579 24.2841 9.28074 24.8895 9.18972C25.1749 9.87203 25.0326 10.4744 25.0237 11.1419C24.3954 11.3484 23.7988 11.2381 23.0724 11.2174Z" fill="#222222"/>
<path d="M23.068 7.17533C23.0378 6.46786 22.964 5.90248 23.116 5.29417C23.7066 5.12544 24.2937 5.14098 24.9212 5.29121C25.172 5.91654 25.0171 6.51078 25.0451 7.13981C24.3512 7.2856 23.7605 7.24637 23.068 7.17533Z" fill="#222222"/>
<path d="M31.0627 7.26118C31.0627 6.50191 31.0627 5.92838 31.0627 5.32674C31.6785 5.03072 32.2854 5.22091 32.8916 5.16837C33.1932 5.85068 33.0332 6.46121 33.039 7.13316C32.3901 7.31668 31.7832 7.18422 31.0627 7.26118Z" fill="#222222"/>
<path d="M54.3608 26.4976C54.4132 26.0558 54.6683 25.7694 54.8822 25.6517C55.6115 25.2491 55.9257 24.6038 56.1336 23.8682C56.3209 23.2059 56.731 22.8907 57.4109 23.0364C57.9795 23.1585 58.2302 23.6788 58.0753 24.4196C57.8998 25.2602 57.5038 25.9973 56.9264 26.6337C55.9471 27.7127 55.4139 27.689 54.3608 26.4976Z" fill="#222222"/>
<path d="M24.9382 16.2451C25.1417 16.9363 25.0311 17.4958 25.0363 18.1159C24.3977 18.3365 23.8025 18.2203 23.175 18.2018C22.9014 17.5883 23.0939 16.9822 23.0349 16.3761C23.6787 16.0808 24.276 16.2111 24.9382 16.2451Z" fill="#222222"/>
</svg>
