<svg width="57" height="57" viewBox="0 0 57 57" fill="none" xmlns="http://www.w3.org/2000/svg">
<path d="M57 38.5752C57 30.2669 51.4018 23.008 43.5076 20.8205C43.0114 9.25589 33.4493 0 21.7646 0C9.76339 0 0 9.76339 0 21.7646C0 25.6759 1.04109 29.4841 3.01804 32.8274L0.0800171 43.4488L10.7019 40.5113C13.7751 42.3286 17.2419 43.3523 20.8201 43.5067C23.0071 51.4014 30.2665 57 38.5752 57C41.8916 57 45.1166 56.1168 47.9502 54.4386L56.9195 56.9195L54.4386 47.9502C56.1168 45.1166 57 41.8916 57 38.5752ZM11.2289 36.9001L4.87017 38.6591L6.62924 32.3004L6.22829 31.6733C4.33875 28.717 3.33984 25.2906 3.33984 21.7646C3.33984 11.6051 11.6051 3.33984 21.7646 3.33984C31.9242 3.33984 40.1895 11.6051 40.1895 21.7646C40.1895 31.9242 31.9242 40.1895 21.7646 40.1895C18.2387 40.1895 14.8127 39.1905 11.856 37.301L11.2289 36.9001ZM52.1298 52.1298L47.4114 50.8243L46.7813 51.2344C44.3386 52.8213 41.5006 53.6602 38.5752 53.6602C32.0451 53.6602 26.3069 49.438 24.2739 43.3836C34.2734 42.2308 42.2308 34.2734 43.384 24.2734C49.438 26.3069 53.6602 32.0451 53.6602 38.5752C53.6602 41.5006 52.8213 44.3386 51.2344 46.7813L50.8243 47.4114L52.1298 52.1298Z" fill="#222222"/>
<path d="M20.0947 31.1699C20.0947 30.6176 20.5424 30.1699 21.0947 30.1699H22.4346C22.9869 30.1699 23.4346 30.6176 23.4346 31.1699V32.5098C23.4346 33.0621 22.9869 33.5098 22.4346 33.5098H21.0947C20.5424 33.5098 20.0947 33.0621 20.0947 32.5098V31.1699Z" fill="#F4C32E"/>
<path d="M25.1045 16.6992C25.1045 17.6477 24.7183 18.5231 24.0173 19.1645L20.4195 22.4575C20.2126 22.647 20.0947 22.9146 20.0947 23.1952V25.8301C20.0947 26.3824 20.5424 26.8301 21.0947 26.8301H22.4346C22.9869 26.8301 23.4346 26.3824 23.4346 25.8301V24.666C23.4346 24.3854 23.5524 24.1177 23.7594 23.9283L26.2721 21.6285C27.6524 20.3652 28.4443 18.5687 28.4443 16.6992C28.4443 13.0158 25.448 10.0195 21.7646 10.0195C18.4198 10.0195 15.6416 12.4903 15.1591 15.7027C15.0771 16.2489 15.5327 16.6992 16.085 16.6992H17.4248C17.9771 16.6992 18.4099 16.2416 18.5731 15.7139C18.9944 14.3517 20.2658 13.3594 21.7646 13.3594C23.6063 13.3594 25.1045 14.8575 25.1045 16.6992Z" fill="#F4C32E"/>
</svg>
