<svg width="58" height="58" viewBox="0 0 58 58" fill="none" xmlns="http://www.w3.org/2000/svg">
<path fill-rule="evenodd" clip-rule="evenodd" d="M13.3916 13.1171C17.5686 13.1171 20.5444 10.7762 21.199 8.73113C22.8858 7.62162 26.8605 8.30043 29.1477 9.09471C40.6236 9.09471 49.96 18.401 49.96 29.8388C49.96 34.1051 48.6717 38.2027 46.2351 41.6864L49.2458 43.7776C52.1141 39.6763 53.6301 34.8569 53.6301 29.8388C53.6301 16.3834 42.6477 5.43587 29.1477 5.43587C26.8535 6.22962 22.8858 6.91541 21.2055 5.79837C20.5374 3.75387 17.5547 1.41347 13.3781 1.41347C9.22899 1.40702 5.42301 3.50523 5.36233 7.21132H5.35535V7.30584H5.36233C5.42946 11.0184 9.24242 13.1171 13.3916 13.1171ZM19.8092 8.7655C19.6674 8.9873 16.5499 13.5945 9.79557 10.6822C10.1398 10.7697 14.7143 11.8723 19.8092 8.7655Z" fill="#222222"/>
<path fill-rule="evenodd" clip-rule="evenodd" d="M40.8541 53.5302L52.5008 53.4234L52.4874 52.2392L40.7735 52.3461L40.7601 51.2478L52.4804 51.1409L52.4739 49.8762L40.7526 49.9895L40.7461 48.8859L52.46 48.7791L52.4535 47.7753L42.5328 47.0256C42.5328 47.0256 42.1601 46.9923 42.0184 46.9923C40.4889 47.0122 39.1286 47.7211 38.2489 48.8258C34.1545 52.4803 29.9178 50.0481 28.9232 50.0615C17.414 50.0615 8.05022 40.8008 8.05022 29.4178C8.05022 25.2805 9.28219 21.2897 11.6135 17.8774L8.56363 15.8383C5.81991 19.8564 4.36884 24.5522 4.36884 29.4173C4.36884 42.8072 15.384 53.7021 28.9227 53.7021C30.08 53.6881 34.9048 51.6565 38.5255 55.1037C38.5319 55.1037 38.5453 55.1096 38.5453 55.1166C39.3713 55.9592 40.4943 56.5086 41.7525 56.5827C41.8476 56.5892 42.071 56.5827 42.071 56.5827L52.5126 55.6182V54.5216L40.8594 54.6349L40.8541 53.5302Z" fill="#222222"/>
<path fill-rule="evenodd" clip-rule="evenodd" d="M19.1481 37.9776L19.4966 40.8223H27.666L28.0146 37.9776C27.666 37.5899 27.0253 37.2129 26.0946 36.8466V21.1872C27.0022 20.844 27.6424 20.4563 28.0146 20.0223L27.666 17.1776H19.4966L19.1481 20.0223C19.4741 20.4563 20.1131 20.8445 21.068 21.1872V36.8466C20.09 37.2129 19.4499 37.5899 19.1481 37.9776Z" fill="#222222"/>
<path fill-rule="evenodd" clip-rule="evenodd" d="M39.4911 40.8223L39.8375 37.9776C39.2832 37.316 38.2553 36.8241 36.7532 36.504L31.2776 28.3486L37.2736 21.0497C38.1512 20.684 38.7516 20.3188 39.0754 19.9531L38.729 17.1771H30.827L30.4801 19.9531C30.7341 20.2731 31.1847 20.5814 31.8318 20.8778L26.0442 28.4861L33.7383 40.8223H39.4911Z" fill="#222222"/>
</svg>
