<svg width="28" height="27" viewBox="0 0 28 27" fill="none" xmlns="http://www.w3.org/2000/svg">
<path d="M13.5321 1.24237C13.6947 0.810679 14.3053 0.810682 14.4679 1.24238L17.6046 9.57083C17.6751 9.75778 17.85 9.88488 18.0495 9.89407L26.9397 10.3036C27.4005 10.3249 27.5892 10.9056 27.2289 11.1937L20.2773 16.7505C20.1213 16.8753 20.0545 17.0809 20.1074 17.2735L22.4651 25.8551C22.5873 26.2999 22.0933 26.6589 21.708 26.4052L14.275 21.511C14.1081 21.4012 13.8919 21.4012 13.725 21.511L6.29202 26.4052C5.90674 26.6589 5.41271 26.2999 5.53492 25.8551L7.8926 17.2735C7.94552 17.0809 7.8787 16.8753 7.72266 16.7505L0.771126 11.1937C0.410803 10.9056 0.599507 10.3249 1.06031 10.3036L9.95045 9.89407C10.15 9.88488 10.3249 9.75778 10.3954 9.57083L13.5321 1.24237Z" fill="#F4C32E"/>
</svg>
